<?xml version="1.0" encoding="iso-8859-1"?>
<!-- Uploaded to: SVG Repo, www.svgrepo.com, Generator: SVG Repo Mixer Tools -->
<!DOCTYPE svg PUBLIC "-//W3C//DTD SVG 1.1//EN" "http://www.w3.org/Graphics/SVG/1.1/DTD/svg11.dtd">
<svg fill="#000000" version="1.1" id="Capa_1" xmlns="http://www.w3.org/2000/svg" xmlns:xlink="http://www.w3.org/1999/xlink" 
	 width="50px" height="50px" viewBox="0 0 404.943 404.943"
	 xml:space="preserve">
<g>
	<g>
		<path d="M391.691,14.305H13.251C5.931,14.305,0,20.24,0,27.557v114.614c0,7.32,5.931,13.252,13.251,13.252h202.673v53.364
			c0,5.359,3.229,10.192,8.182,12.244c1.639,0.679,6.837,2.562,14.438-2.873l96.173-62.735h56.975
			c7.32,0,13.252-5.932,13.252-13.252V27.557C404.943,20.24,399.012,14.305,391.691,14.305z"/>
		<path d="M391.693,182.823h-53.221l-84.635,55.208c-6.893,5.832-15.535,9.01-24.666,9.01c-5.039,0-9.957-0.978-14.623-2.905
			c-14.355-5.947-23.625-19.819-23.625-35.347v-25.966H13.253C5.933,182.823,0,188.758,0,196.075v114.614
			c0,7.32,5.933,13.253,13.253,13.253h56.975l96.172,62.734c5.438,3.856,12.276,5.355,17.084,2.418
			c4.5-2.75,5.537-6.429,5.537-11.788v-53.364h202.672c7.32,0,13.25-5.933,13.25-13.253V196.075
			C404.943,188.757,399.014,182.823,391.693,182.823z"/>
	</g>
</g>
</svg>